Coordinates
version=1
nRows=22
nColumns=33
inDegrees=yes

Units are S.I. units (second, meters, Newtons, ...)
Angles are in degrees.

endheader
time	ground_thorax_rot_x	ground_thorax_rot_y	ground_thorax_rot_z	ground_thorax_tx	ground_thorax_ty	ground_thorax_tz	clav_prot_r	clav_elev_r	scapula_abduction_r	scapula_elevation_r	scapula_upward_rot_r	scapula_winging_r	shoulder_elv_r	plane_of_elev_r	axial_rot_r	elbow_flexion_r	pro_sup_r	wrist_flex_r	wrist_dev_r	clav_prot_l	clav_elev_l	scapula_abduction_l	scapula_elevation_l	scapula_upward_rot_l	scapula_winging_l	shoulder_elv_l	plane_of_elev_l	axial_rot_l	elbow_flexion_l	pro_sup_l	wrist_flex_l	wrist_dev_l	
9.7200	-33.229909	-14.943034	26.702590	-177.526101	809.688660	5.104054	8.699265	-38.923505	43.760062	-45.000000	45.000000	2504.599409	-2638.517254	-90.000000	-71.988672	1802.031070	-107.573162	17.113748	13.144779	-3.162723	42.075630	-45.000000	-44.995919	37.295559	-2398.313890	-275.087682	10.159158	180.000000	1093.699997	215.830481	9.658937	-13.342624	
9.7300	-32.999003	-15.274985	27.128317	-173.904343	807.477680	5.046634	8.833055	-38.887745	44.015774	-45.000000	45.000000	2504.253904	-2638.775652	-90.000000	-71.680774	1801.848066	-107.279329	16.908106	12.994111	-3.239014	42.073346	-45.000000	-44.992668	37.361521	-2398.084144	-275.280513	10.112912	180.000000	1093.715245	216.438623	9.504291	-13.142706	
9.7400	-32.780520	-15.617343	27.543958	-170.205179	805.216039	4.977359	8.948957	-38.850896	44.261153	-45.000000	45.000000	2503.880205	-2639.089513	-90.000000	-71.316179	1801.627973	-107.000092	16.690698	12.840108	-3.302555	42.074794	-45.000000	-44.986930	37.401641	-2397.864565	-275.480889	10.048491	180.000000	1093.716572	217.071398	9.333264	-12.938041	
9.7500	-32.573358	-15.958024	27.939124	-166.432193	802.912927	4.897106	9.038663	-38.812475	44.488856	-45.000000	45.000000	2503.493585	-2639.440582	-90.000000	-70.912522	1801.383387	-106.730591	16.454150	12.676203	-3.396796	42.055107	-44.999999	-44.976408	37.515635	-2397.636776	-275.653554	9.955857	180.000000	1093.713602	217.728790	9.123838	-12.705444	
9.7600	-32.386194	-16.311453	28.328765	-162.587995	800.578607	4.807559	9.098471	-38.774014	44.681278	-45.000000	45.000000	2503.075193	-2639.860158	-90.000000	-70.439142	1801.090066	-106.459486	16.218575	12.512914	-3.450526	42.058403	-44.999999	-44.958241	37.512866	-2397.447436	-275.869492	9.853867	180.000000	1093.683825	218.391206	8.912136	-12.482551	
9.7700	-32.223923	-16.667764	28.708087	-158.676752	798.225155	4.710296	9.137188	-38.736749	44.827542	-45.000000	45.000000	2502.629320	-2640.339886	-90.000000	-69.904895	1800.754102	-106.177652	15.989809	12.351681	-3.476138	42.084940	-44.999998	-44.923800	37.355127	-2397.307004	-276.155432	9.760815	180.000000	1093.626654	219.049426	8.703151	-12.272076	
9.7800	-32.091647	-17.037286	29.086282	-154.706695	795.867126	4.605860	9.150772	-38.701172	44.922988	-45.000000	45.000000	2502.145106	-2640.894606	-90.000000	-69.296196	1800.362587	-105.869737	15.789408	12.202917	-3.417668	42.163911	-44.999996	-44.867404	36.909385	-2397.249575	-276.553517	9.691168	180.000000	1093.526137	219.690069	8.527063	-12.106032	
9.7900	-31.991022	-17.396684	29.451809	-150.693817	793.522712	4.492478	9.159236	-38.674949	44.974499	-45.000000	45.000000	2501.634050	-2641.505582	-90.000000	-68.633333	1799.927226	-105.521862	15.593262	12.054046	-3.291603	42.289586	-44.999993	-44.751594	36.050245	-2397.348213	-277.123405	9.647732	180.000000	1093.346012	220.305656	8.383403	-11.996678	
9.8000	-31.908431	-17.738765	29.794852	-146.660248	791.212761	4.366448	9.135213	-38.645850	44.995325	-45.000000	45.000000	2501.133906	-2642.117020	-90.000000	-67.971583	1799.487639	-105.109640	15.420585	11.907186	-3.122317	42.408240	-44.999988	-44.585428	35.071272	-2397.519387	-277.722712	9.610709	180.000000	1093.140250	220.926593	8.249889	-11.910104	
9.8100	-31.838047	-18.048586	30.119793	-142.633160	788.960288	4.222417	9.080963	-38.611629	44.999975	-45.000000	45.000000	2500.648721	-2642.718615	-90.000000	-67.322751	1799.041233	-104.631769	15.271480	11.764557	-2.836007	42.521515	-44.999978	-44.295959	33.690972	-2397.896379	-278.441202	9.598547	180.000000	1092.856109	221.543840	8.166613	-11.901219	
9.8200	-31.764725	-18.307621	30.411654	-138.638855	786.788068	4.054979	8.985160	-38.563533	44.999955	-45.000000	45.000000	2500.221877	-2643.256052	-90.000000	-66.740524	1798.623494	-104.077171	15.152528	11.622339	-2.468678	42.559061	-44.999961	-43.878544	32.192237	-2398.406888	-279.139769	9.599419	180.000000	1092.545234	222.183802	8.100503	-11.926474	
9.8300	-31.693947	-18.496102	30.668796	-134.700934	784.718667	3.858303	8.886869	-38.511349	44.999920	-45.000000	45.000000	2499.845238	-2643.764542	-90.000000	-66.191968	1798.206547	-103.455947	15.056852	11.484005	-1.972711	42.529983	-44.999931	-43.271003	30.194792	-2399.191917	-279.969782	9.654624	180.000000	1092.132810	222.809529	8.089785	-12.045351	
9.8400	-31.622101	-18.606651	30.875984	-130.835566	782.773044	3.627109	8.774943	-38.448117	44.999856	-45.000000	45.000000	2499.551572	-2644.200766	-90.000000	-65.719291	1797.828459	-102.760497	14.994355	11.345534	-1.431194	42.362516	-44.999876	-42.533752	28.154593	-2400.090110	-280.740763	9.743814	180.000000	1091.700421	223.434288	8.072246	-12.175936	
9.8500	-31.570533	-18.649821	31.046062	-127.061779	780.979177	3.347636	8.673706	-38.386456	44.999742	-45.000000	45.000000	2499.302755	-2644.601491	-90.000000	-65.287163	1797.463490	-101.995613	14.957989	11.207179	-0.775935	42.108319	-44.999777	-41.654743	25.701588	-2401.225876	-281.594686	9.892965	180.000000	1091.173861	224.006203	8.079690	-12.367754	
9.8600	-31.554851	-18.651589	31.187484	-123.400492	779.369580	3.002704	8.577881	-38.331296	44.999538	-45.000000	45.000000	2499.091809	-2644.927435	-90.000000	-64.933282	1797.147824	-101.137305	14.946132	11.056854	-0.042530	41.786753	-44.999601	-40.724155	23.082140	-2402.491323	-282.421868	10.084524	180.000000	1090.596811	224.522589	8.065772	-12.561551	
9.8700	-31.611549	-18.644452	31.314671	-119.916986	778.027491	2.521736	8.505249	-38.298151	44.999172	-45.000000	45.000000	2498.869126	-2645.193533	-90.000000	-64.642834	1796.882184	-100.155959	14.970679	10.895177	0.830033	41.472438	-44.999286	-39.766380	20.004112	-2403.965275	-283.328417	10.341673	180.000000	1089.910962	224.939026	8.057914	-12.797318	
9.8800	-31.746727	-18.661477	31.438802	-116.661153	777.014284	1.867529	8.416799	-38.280692	44.998519	-45.000000	45.000000	2498.639372	-2645.337781	-90.000000	-64.475253	1796.722837	-99.029071	15.043198	10.715686	1.824142	41.163548	-44.998721	-38.865866	16.803503	-2405.522822	-284.148605	10.631879	180.000000	1089.183646	225.260705	8.018018	-13.015632	
9.8900	-32.049090	-18.769726	31.553750	-113.907238	776.650905	0.713333	8.301306	-38.303015	44.997341	-45.000000	45.000000	2498.322979	-2645.339505	-90.000000	-64.449865	1796.730804	-97.597591	15.217343	10.495585	3.037873	40.932846	-44.997707	-38.046538	13.293384	-2407.231227	-284.932620	10.959584	180.000000	1088.376980	225.460675	7.957220	-13.236453	
9.9000	-32.469434	-18.943256	31.657703	-111.609257	776.855853	-0.788631	8.156221	-38.351359	44.995252	-45.000000	45.000000	2497.966169	-2645.196732	-90.000000	-64.567934	1796.896629	-95.897171	15.475391	10.239029	4.397404	40.732976	-44.995897	-37.316196	9.589199	-2409.034099	-285.643324	11.324768	180.000000	1087.523192	225.529512	7.881965	-13.452747	
9.9100	-32.953712	-19.141209	31.738295	-109.761575	777.598512	-2.437696	8.002578	-38.414373	44.991454	-45.000000	45.000000	2497.601532	-2644.929456	-90.000000	-64.809531	1797.191517	-93.982574	15.809167	9.957847	5.818779	40.522097	-44.992639	-36.673634	5.820655	-2410.871643	-286.279539	11.718206	180.000000	1086.656307	225.472876	7.798337	-13.661199	
9.9200	-33.353796	-19.278850	31.811889	-108.076624	778.506850	-3.696925	7.855312	-38.456142	44.984805	-45.000000	45.000000	2497.329128	-2644.588405	-90.000000	-65.124890	1797.517457	-92.106944	16.145254	9.688621	7.172153	40.226834	-44.986848	-36.093176	2.152748	-2412.677625	-286.820676	12.119667	180.000000	1085.823782	225.304419	7.725422	-13.865205	
9.9300	-33.547170	-19.266480	31.867773	-106.740214	779.839029	-4.132459	7.728215	-38.454480	44.972465	-45.000000	45.000000	2497.229189	-2644.145926	-90.000000	-65.541498	1797.875951	-90.355699	16.462384	9.429131	8.324409	39.803667	-44.976345	-35.518899	-1.100882	-2414.331673	-287.306611	12.461342	180.000000	1085.073945	225.239694	7.643000	-14.053221	
